<svg width="18" height="16" viewBox="0 0 18 16" fill="none" xmlns="http://www.w3.org/2000/svg">
<path d="M4.99878 6.17337V8.85739C4.99878 9.32709 4.62973 9.6626 4.19358 9.6626H0.804999C0.335296 9.6626 -0.000206947 9.32709 -0.000206947 8.85739V6.17337C-0.000206947 5.73722 0.335296 5.36816 0.804999 5.36816H4.19358C4.62973 5.36816 4.99878 5.73722 4.99878 6.17337ZM-0.000206947 11.5414C-0.000206947 11.1053 0.335296 10.7362 0.804999 10.7362H4.19358C4.62973 10.7362 4.99878 11.1053 4.99878 11.5414V14.2254C4.99878 14.6951 4.62973 15.0306 4.19358 15.0306H0.804999C0.335296 15.0306 -0.000206947 14.6951 -0.000206947 14.2254V11.5414ZM4.19358 0.000120521C4.62973 0.000120521 4.99878 0.369173 4.99878 0.805327V3.48935C4.99878 3.95905 4.62973 4.29455 4.19358 4.29455H0.804999C0.335296 4.29455 -0.000206947 3.95905 -0.000206947 3.48935V0.805327C-0.000206947 0.369173 0.335296 0.000120521 0.804999 0.000120521H4.19358ZM6.8776 15.0306C6.44144 15.0306 6.07239 14.6951 6.07239 14.2254V11.5414C6.07239 11.1053 6.44144 10.7362 6.8776 10.7362H16.3723C16.8085 10.7362 17.1775 11.1053 17.1775 11.5414V14.2254C17.1775 14.6951 16.8085 15.0306 16.3723 15.0306H6.8776ZM6.07239 0.805327C6.07239 0.369173 6.44144 0.000120521 6.8776 0.000120521H16.3723C16.8085 0.000120521 17.1775 0.369173 17.1775 0.805327V3.48935C17.1775 3.95905 16.8085 4.29455 16.3723 4.29455H6.8776C6.44144 4.29455 6.07239 3.95905 6.07239 3.48935V0.805327ZM6.8776 9.6626C6.44144 9.6626 6.07239 9.32709 6.07239 8.85739V6.17337C6.07239 5.73722 6.44144 5.36816 6.8776 5.36816H16.3723C16.8085 5.36816 17.1775 5.73722 17.1775 6.17337V8.85739C17.1775 9.32709 16.8085 9.6626 16.3723 9.6626H6.8776Z" fill="#0D0D0D"/>
</svg>
