<svg width="16" height="14" viewBox="0 0 16 14" fill="none" xmlns="http://www.w3.org/2000/svg">
<path d="M0.537265 2.41569C0.235312 2.41569 0.000460625 2.18084 0.000460625 1.87889V0.536879C0.000460625 0.268477 0.235312 7.48485e-05 0.537265 7.48485e-05H14.4942C14.7626 7.48485e-05 15.031 0.268477 15.031 0.536879V1.87889C15.031 2.18084 14.7626 2.41569 14.4942 2.41569H0.537265ZM0.537265 7.78374C0.235312 7.78374 0.000460625 7.54888 0.000460625 7.24693V5.90492C0.000460625 5.63652 0.235312 5.36812 0.537265 5.36812H14.4942C14.7626 5.36812 15.031 5.63652 15.031 5.90492V7.24693C15.031 7.54888 14.7626 7.78374 14.4942 7.78374H0.537265ZM0.537265 13.1518C0.235312 13.1518 0.000460625 12.9169 0.000460625 12.615V11.273C0.000460625 11.0046 0.235312 10.7362 0.537265 10.7362H14.4942C14.7626 10.7362 15.031 11.0046 15.031 11.273V12.615C15.031 12.9169 14.7626 13.1518 14.4942 13.1518H0.537265Z" fill="#0D0D0D"/>
</svg>
