<svg width="27" height="27" viewBox="0 0 27 27" fill="none" xmlns="http://www.w3.org/2000/svg">
<path d="M3.375 4.2179C3.375 3.99412 3.4639 3.77951 3.62213 3.62127C3.78036 3.46304 3.99497 3.37415 4.21875 3.37415H22.7812C23.005 3.37415 23.2196 3.46304 23.3779 3.62127C23.5361 3.77951 23.625 3.99412 23.625 4.2179C23.625 4.44167 23.5361 4.65628 23.3779 4.81452C23.2196 4.97275 23.005 5.06165 22.7812 5.06165H4.21875C3.99497 5.06165 3.78036 4.97275 3.62213 4.81452C3.4639 4.65628 3.375 4.44167 3.375 4.2179ZM3.375 12.6554C3.375 12.4316 3.4639 12.217 3.62213 12.0588C3.78036 11.9005 3.99497 11.8116 4.21875 11.8116H22.7812C23.005 11.8116 23.2196 11.9005 23.3779 12.0588C23.5361 12.217 23.625 12.4316 23.625 12.6554C23.625 12.8792 23.5361 13.0938 23.3779 13.252C23.2196 13.4103 23.005 13.4991 22.7812 13.4991H4.21875C3.99497 13.4991 3.78036 13.4103 3.62213 13.252C3.4639 13.0938 3.375 12.8792 3.375 12.6554ZM4.21875 20.2491C3.99497 20.2491 3.78036 20.338 3.62213 20.4963C3.4639 20.6545 3.375 20.8691 3.375 21.0929C3.375 21.3167 3.4639 21.5313 3.62213 21.6895C3.78036 21.8478 3.99497 21.9366 4.21875 21.9366H22.7812C23.005 21.9366 23.2196 21.8478 23.3779 21.6895C23.5361 21.5313 23.625 21.3167 23.625 21.0929C23.625 20.8691 23.5361 20.6545 23.3779 20.4963C23.2196 20.338 23.005 20.2491 22.7812 20.2491H4.21875Z" fill="white"/>
</svg>
