<svg width="24" height="24" viewBox="0 0 24 24" fill="none" xmlns="http://www.w3.org/2000/svg">
<path d="M12 8.75C11.138 8.75 10.3114 9.09241 9.7019 9.7019C9.09241 10.3114 8.75 11.138 8.75 12C8.75 12.862 9.09241 13.6886 9.7019 14.2981C10.3114 14.9076 11.138 15.25 12 15.25C12.862 15.25 13.6886 14.9076 14.2981 14.2981C14.9076 13.6886 15.25 12.862 15.25 12C15.25 11.138 14.9076 10.3114 14.2981 9.7019C13.6886 9.09241 12.862 8.75 12 8.75Z" fill="white"/>
<path fill-rule="evenodd" clip-rule="evenodd" d="M6.77012 3.08202C10.2462 2.69695 13.7541 2.69695 17.2301 3.08202C19.1291 3.29402 20.6601 4.78902 20.8831 6.69502C21.2951 10.2197 21.2951 13.7803 20.8831 17.305C20.6601 19.211 19.1291 20.706 17.2311 20.919C13.7548 21.3042 10.2465 21.3042 6.77012 20.919C4.87112 20.706 3.34012 19.211 3.11712 17.306C2.7051 13.781 2.7051 10.22 3.11712 6.69502C3.34012 4.78902 4.87112 3.29402 6.77012 3.08202ZM17.0001 6.00002C16.7349 6.00002 16.4805 6.10537 16.293 6.29291C16.1055 6.48045 16.0001 6.7348 16.0001 7.00002C16.0001 7.26523 16.1055 7.51959 16.293 7.70712C16.4805 7.89466 16.7349 8.00002 17.0001 8.00002C17.2653 8.00002 17.5197 7.89466 17.7072 7.70712C17.8948 7.51959 18.0001 7.26523 18.0001 7.00002C18.0001 6.7348 17.8948 6.48045 17.7072 6.29291C17.5197 6.10537 17.2653 6.00002 17.0001 6.00002ZM7.25012 12C7.25012 10.7402 7.75056 9.53206 8.64136 8.64126C9.53216 7.75046 10.7403 7.25002 12.0001 7.25002C13.2599 7.25002 14.4681 7.75046 15.3589 8.64126C16.2497 9.53206 16.7501 10.7402 16.7501 12C16.7501 13.2598 16.2497 14.468 15.3589 15.3588C14.4681 16.2496 13.2599 16.75 12.0001 16.75C10.7403 16.75 9.53216 16.2496 8.64136 15.3588C7.75056 14.468 7.25012 13.2598 7.25012 12Z" fill="white"/>
</svg>
