<svg width="31" height="31" viewBox="0 0 31 31" fill="none" xmlns="http://www.w3.org/2000/svg">
<path d="M26.5126 21.2464V14.0922C26.5126 12.7747 26.5126 12.1159 26.1551 11.62C25.8664 11.2193 25.4031 11.0064 24.5768 10.7197C24.4078 12.7476 23.7362 14.8184 22.6816 16.6309C21.4535 18.7413 19.6299 20.6282 17.2925 21.6479C15.9304 22.2421 14.3698 22.2421 13.0077 21.6479C10.6703 20.6282 8.84667 18.7413 7.61864 16.6309C6.81868 15.2562 6.23912 13.7327 5.9321 12.1922C5.44914 12.1211 5.0785 12.1575 4.75867 12.336C4.63106 12.4072 4.51212 12.4929 4.40422 12.5915C3.7876 13.1547 3.7876 14.2018 3.7876 16.2962V22.5199C3.7876 23.8375 3.7876 24.4962 4.14506 24.9922C4.50252 25.4881 5.12747 25.6965 6.37739 26.1131L6.86163 26.2745C8.85257 26.9381 9.84804 27.27 10.8663 27.2719C11.173 27.2725 11.4793 27.2507 11.7828 27.2068C12.7905 27.0609 13.7372 26.5875 15.6306 25.6408C17.0816 24.9153 17.8071 24.5526 18.5778 24.3843C18.8483 24.3252 19.1223 24.284 19.3982 24.2609C20.1843 24.1951 20.9774 24.3273 22.5637 24.5917C24.1713 24.8596 24.975 24.9936 25.5619 24.6566C25.7612 24.5421 25.938 24.3923 26.0837 24.2145C26.5126 23.6911 26.5126 22.8762 26.5126 21.2464Z" fill="white"/>
<path fill-rule="evenodd" clip-rule="evenodd" d="M15.1502 2.5249C10.9666 2.5249 7.5752 5.74695 7.5752 9.72154C7.5752 13.665 9.99287 18.2666 13.765 19.9122C14.6443 20.2958 15.6561 20.2958 16.5354 19.9122C20.3075 18.2666 22.7252 13.665 22.7252 9.72154C22.7252 5.74695 19.3338 2.5249 15.1502 2.5249ZM15.1502 12.6249C16.5447 12.6249 17.6752 11.4944 17.6752 10.0999C17.6752 8.70538 16.5447 7.5749 15.1502 7.5749C13.7557 7.5749 12.6252 8.70538 12.6252 10.0999C12.6252 11.4944 13.7557 12.6249 15.1502 12.6249Z" fill="white"/>
</svg>
