<svg width="31" height="31" viewBox="0 0 31 31" fill="none" xmlns="http://www.w3.org/2000/svg">
<path d="M19.6398 18.3666L19.0648 18.9719C19.0648 18.9719 17.698 20.4109 13.9673 16.4832C10.2366 12.5555 11.6034 11.1165 11.6034 11.1165L11.9655 10.7353C12.8575 9.79614 12.9416 8.28837 12.1633 7.18764L10.5713 4.93599C9.60808 3.5736 7.74675 3.39363 6.64268 4.55601L4.66106 6.64228C4.11361 7.21864 3.74676 7.96578 3.79124 8.79459C3.90505 10.915 4.81113 15.4771 9.86699 20.8C15.2286 26.4447 20.2592 26.6691 22.3164 26.466C22.9671 26.4018 23.533 26.0509 23.989 25.5708L25.7825 23.6826C26.9931 22.4081 26.6517 20.223 25.1028 19.3315L22.6908 17.9431C21.6737 17.3577 20.4346 17.5297 19.6398 18.3666Z" fill="white"/>
<path d="M16.74 2.37378C16.8236 1.85755 17.3116 1.50737 17.8278 1.59094C17.8598 1.59706 17.9626 1.61627 18.0164 1.62827C18.1242 1.65226 18.2744 1.6892 18.4618 1.74377C18.8365 1.85291 19.3599 2.03269 19.9882 2.32071C21.246 2.89737 22.9198 3.90611 24.6568 5.64306C26.3937 7.38001 27.4024 9.05384 27.9791 10.3116C28.2671 10.9399 28.4469 11.4633 28.556 11.838C28.6106 12.0254 28.6475 12.1756 28.6715 12.2834C28.6835 12.3372 28.6923 12.3805 28.6984 12.4124L28.7057 12.4518C28.7893 12.9681 28.4423 13.4762 27.926 13.5598C27.4113 13.6431 26.9264 13.2946 26.8407 12.7808C26.8381 12.7671 26.8309 12.73 26.8231 12.695C26.8075 12.6251 26.7806 12.5142 26.7378 12.3676C26.6524 12.0743 26.504 11.6383 26.2576 11.1009C25.7655 10.0274 24.8805 8.54494 23.3177 6.98214C21.7549 5.41934 20.2725 4.53434 19.1989 4.04217C18.6615 3.79579 18.2255 3.6474 17.9322 3.56197C17.7856 3.51925 17.6013 3.47695 17.5313 3.46137C17.0175 3.37575 16.6567 2.88852 16.74 2.37378Z" fill="white"/>
<path fill-rule="evenodd" clip-rule="evenodd" d="M17.0256 6.72873C17.1693 6.2259 17.6934 5.93474 18.1962 6.07841L17.9361 6.98885C18.1962 6.07841 18.1962 6.07841 18.1962 6.07841L18.198 6.07893L18.2 6.07949L18.2042 6.08072L18.214 6.08364L18.2389 6.09142C18.258 6.09751 18.2818 6.10544 18.3101 6.1155C18.3668 6.13562 18.4417 6.16423 18.5337 6.20362C18.7176 6.28245 18.9689 6.40418 19.2776 6.58688C19.8955 6.9526 20.7391 7.56009 21.7302 8.55112C22.7212 9.54214 23.3287 10.3857 23.6944 11.0037C23.8771 11.3124 23.9988 11.5637 24.0776 11.7476C24.117 11.8395 24.1457 11.9145 24.1658 11.9712C24.1758 11.9995 24.1838 12.0233 24.1899 12.0423L24.1976 12.0673L24.2006 12.0771L24.2018 12.0813L24.2023 12.0832C24.2023 12.0832 24.2029 12.0851 23.2924 12.3452L24.2029 12.0851C24.3465 12.5879 24.0554 13.112 23.5525 13.2556C23.054 13.3981 22.5345 13.113 22.3857 12.6181L22.3811 12.6045C22.3743 12.5855 22.3604 12.5481 22.337 12.4936C22.2903 12.3846 22.2056 12.2063 22.0647 11.9682C21.7832 11.4926 21.2748 10.7739 20.3911 9.8902C19.5074 9.00651 18.7887 8.49809 18.3131 8.21659C18.075 8.07568 17.8967 7.99097 17.7877 7.94425C17.7331 7.92088 17.6958 7.90695 17.6768 7.90022L17.6632 7.89555C17.1682 7.74673 16.8832 7.22728 17.0256 6.72873Z" fill="white"/>
</svg>
