<svg width="23" height="23" viewBox="0 0 23 23" fill="none" xmlns="http://www.w3.org/2000/svg">
<path fill-rule="evenodd" clip-rule="evenodd" d="M21.4706 0H1.25442C0.561307 0 0 0.561307 0 1.25442V21.4706C0 22.1637 0.561307 22.725 1.25442 22.725H12.1374V13.9247H9.17636V10.4955H12.1374V7.96511C12.1374 5.02904 13.9304 3.43147 16.5495 3.43147C17.8039 3.43147 18.8811 3.52465 19.1958 3.56669V6.63456H17.3801C15.9552 6.63456 15.6803 7.31177 15.6803 8.30485V10.4944H19.0765L18.6334 13.9236H15.6791V22.725H21.4706C22.1637 22.725 22.725 22.1637 22.725 21.4706V1.25442C22.725 0.561307 22.1637 0 21.4706 0Z" fill="white"/>
</svg>
