<svg width="31" height="31" viewBox="0 0 31 31" fill="none" xmlns="http://www.w3.org/2000/svg">
<path d="M15.15 11.0474C14.0618 11.0474 13.0181 11.4797 12.2487 12.2491C11.4792 13.0186 11.0469 14.0623 11.0469 15.1505C11.0469 16.2387 11.4792 17.2824 12.2487 18.0518C13.0181 18.8213 14.0618 19.2536 15.15 19.2536C16.2382 19.2536 17.2819 18.8213 18.0513 18.0518C18.8208 17.2824 19.2531 16.2387 19.2531 15.1505C19.2531 14.0623 18.8208 13.0186 18.0513 12.2491C17.2819 11.4797 16.2382 11.0474 15.15 11.0474Z" fill="white"/>
<path fill-rule="evenodd" clip-rule="evenodd" d="M8.54648 3.89098C12.935 3.40483 17.3637 3.40483 21.7522 3.89098C24.1497 4.15863 26.0826 6.04607 26.3641 8.45239C26.8842 12.9023 26.8842 17.3976 26.3641 21.8475C26.0826 24.2538 24.1497 26.1413 21.7535 26.4102C17.3646 26.8964 12.9354 26.8964 8.54648 26.4102C6.14899 26.1413 4.2161 24.2538 3.93456 21.8488C3.41439 17.3985 3.41439 12.9027 3.93456 8.45239C4.2161 6.04607 6.14899 4.15863 8.54648 3.89098ZM21.4619 7.57496C21.127 7.57496 20.8059 7.70797 20.5691 7.94473C20.3324 8.1815 20.1994 8.50262 20.1994 8.83746C20.1994 9.17229 20.3324 9.49341 20.5691 9.73018C20.8059 9.96694 21.127 10.1 21.4619 10.1C21.7967 10.1 22.1178 9.96694 22.3546 9.73018C22.5913 9.49341 22.7243 9.17229 22.7243 8.83746C22.7243 8.50262 22.5913 8.1815 22.3546 7.94473C22.1178 7.70797 21.7967 7.57496 21.4619 7.57496ZM9.15248 15.15C9.15248 13.5595 9.78429 12.0342 10.9089 10.9095C12.0336 9.78489 13.5589 9.15308 15.1494 9.15308C16.7398 9.15308 18.2651 9.78489 19.3898 10.9095C20.5144 12.0342 21.1462 13.5595 21.1462 15.15C21.1462 16.7404 20.5144 18.2658 19.3898 19.3904C18.2651 20.515 16.7398 21.1468 15.1494 21.1468C13.5589 21.1468 12.0336 20.515 10.9089 19.3904C9.78429 18.2658 9.15248 16.7404 9.15248 15.15Z" fill="white"/>
</svg>
