<svg width="26" height="21" viewBox="0 0 26 21" fill="none" xmlns="http://www.w3.org/2000/svg">
<path fill-rule="evenodd" clip-rule="evenodd" d="M1.47911 1.47911C0 2.95822 0 5.33881 0 10.1C0 14.8612 0 17.2418 1.47911 18.7209C2.95822 20.2 5.33881 20.2 10.1 20.2H15.15C19.9112 20.2 22.2918 20.2 23.7709 18.7209C25.25 17.2418 25.25 14.8612 25.25 10.1C25.25 5.33881 25.25 2.95822 23.7709 1.47911C22.2918 0 19.9112 0 15.15 0H10.1C5.33881 0 2.95822 0 1.47911 1.47911ZM20.9274 4.44383C21.2622 4.84556 21.2079 5.44263 20.8062 5.77741L18.0331 8.08829C16.9141 9.02085 16.0071 9.7767 15.2066 10.2916C14.3727 10.8279 13.5606 11.1667 12.625 11.1667C11.6894 11.1667 10.8773 10.8279 10.0434 10.2916C9.24291 9.7767 8.33592 9.02085 7.2169 8.08831L4.44383 5.77741C4.04209 5.44263 3.98781 4.84556 4.32259 4.44383C4.65737 4.04209 5.25444 3.98781 5.65617 4.32259L8.38178 6.59393C9.55964 7.57548 10.3774 8.25475 11.0678 8.69879C11.7361 9.12862 12.1893 9.2729 12.625 9.2729C13.0607 9.2729 13.5139 9.12862 14.1822 8.69879C14.8726 8.25475 15.6904 7.57548 16.8682 6.59393L19.5938 4.32259C19.9956 3.98781 20.5926 4.04209 20.9274 4.44383Z" fill="white"/>
</svg>
