<svg width="8" height="14" viewBox="0 0 8 14" fill="none" xmlns="http://www.w3.org/2000/svg">
<path d="M1.6536 13.2287L7.45252 7.42979C7.64884 7.24858 7.747 7.02583 7.747 6.76156C7.747 6.49728 7.64884 6.26699 7.45252 6.07067L1.6536 0.271749C1.47238 0.0905323 1.24586 -7.62939e-05 0.974038 -7.62939e-05C0.702213 -7.62939e-05 0.475693 0.0905323 0.294477 0.271749C0.0981588 0.468066 0 0.698361 0 0.962635C0 1.22691 0.0981588 1.44965 0.294477 1.63087L5.41384 6.75023L0.294477 11.8696C0.0981588 12.0659 0 12.2962 0 12.5605C0 12.8248 0.0981588 13.0475 0.294477 13.2287C0.475693 13.425 0.702213 13.5232 0.974038 13.5232C1.24586 13.5232 1.47238 13.425 1.6536 13.2287Z" fill="#0D0D0D"/>
</svg>
